<svg xmlns="http://www.w3.org/2000/svg" width="341.777" height="18.656" viewBox="0 0 341.777 18.656">
  <metadata><?xpacket begin="﻿" id="W5M0MpCehiHzreSzNTczkc9d"?>
<x:xmpmeta xmlns:x="adobe:ns:meta/" x:xmptk="Adobe XMP Core 5.6-c138 79.159824, 2016/09/14-01:09:01        ">
   <rdf:RDF xmlns:rdf="http://www.w3.org/1999/02/22-rdf-syntax-ns#">
      <rdf:Description rdf:about=""/>
   </rdf:RDF>
</x:xmpmeta>
                                                                                                    
                                                                                                    
                                                                                                    
                                                                                                    
                                                                                                    
                                                                                                    
                                                                                                    
                                                                                                    
                                                                                                    
                                                                                                    
                                                                                                    
                                                                                                    
                                                                                                    
                                                                                                    
                                                                                                    
                                                                                                    
                                                                                                    
                                                                                                    
                                                                                                    
                                                                                                    
                           
<?xpacket end="w"?></metadata>
<defs>
    <style>
      .cls-1 {
        fill: #fff600;
        fill-rule: evenodd;
      }
    </style>
  </defs>
  <path id="до_конца_акции_осталось:_" data-name="до конца акции осталось:    " class="cls-1" d="M795.568,183.918v5.813h1.462v-4.517h10.478v4.517h1.539v-5.813h-1.308V171.33h-8.324l-0.295,5.017a24.977,24.977,0,0,1-.763,5.627q-0.583,1.944-1.6,1.944h-1.192Zm5.3-11.151H806.2v11.151h-7.106a8.15,8.15,0,0,0,1.052-2.938,36.1,36.1,0,0,0,.513-4.633Zm12.665,5.723a7.461,7.461,0,0,0,1.68,5.037,6.062,6.062,0,0,0,8.921,0,7.482,7.482,0,0,0,1.673-5.037v-0.423a7.463,7.463,0,0,0-1.68-5.03,6.039,6.039,0,0,0-8.914,0,7.463,7.463,0,0,0-1.68,5.03v0.423Zm1.539-.423a6.6,6.6,0,0,1,1.219-4.029,4.276,4.276,0,0,1,6.759,0,6.557,6.557,0,0,1,1.231,4.029v0.423a6.588,6.588,0,0,1-1.225,4.055,4.3,4.3,0,0,1-6.765,0,6.611,6.611,0,0,1-1.219-4.055v-0.423Zm32.624,7.147H849.6l0.038-.077-6.605-7.07,5.977-6.673-0.026-.064H847.14l-5.476,6.159h-1.719V171.33h-1.552v13.884h1.552V178.85H841.7Zm4.168-6.724a7.461,7.461,0,0,0,1.68,5.037,6.061,6.061,0,0,0,8.92,0,7.478,7.478,0,0,0,1.674-5.037v-0.423a7.464,7.464,0,0,0-1.681-5.03,6.038,6.038,0,0,0-8.913,0,7.463,7.463,0,0,0-1.68,5.03v0.423Zm1.539-.423a6.608,6.608,0,0,1,1.218-4.029,4.276,4.276,0,0,1,6.759,0,6.557,6.557,0,0,1,1.231,4.029v0.423a6.594,6.594,0,0,1-1.224,4.055,4.3,4.3,0,0,1-6.766,0,6.617,6.617,0,0,1-1.218-4.055v-0.423Zm25.852-6.737h-1.539v6.224h-7.477V171.33H868.7v13.884h1.539V178.85h7.477v6.364h1.539V171.33Zm5.422,13.884h10.2v4.5H896.4v-5.8h-1.155V171.33H893.7v12.588h-7.49V171.33h-1.539v13.884Zm26.366,0a8.928,8.928,0,0,1-.276-1.373,11.821,11.821,0,0,1-.083-1.424V175.59a4.136,4.136,0,0,0-1.386-3.349,5.5,5.5,0,0,0-3.668-1.168,5.571,5.571,0,0,0-3.7,1.187,3.288,3.288,0,0,0-1.34,2.753l0.026,0.077h1.423a2.379,2.379,0,0,1,.969-1.938,3.97,3.97,0,0,1,2.545-.77,3.851,3.851,0,0,1,2.662.847,2.981,2.981,0,0,1,.942,2.336v1.719h-3.411a7.158,7.158,0,0,0-4.233,1.155,3.542,3.542,0,0,0-1.628,3.016A3.906,3.906,0,0,0,901,184.4a4.362,4.362,0,0,0,3.161,1.084,5.908,5.908,0,0,0,2.976-.738,5.633,5.633,0,0,0,2.013-1.867,8.111,8.111,0,0,0,.071,1.078q0.07,0.526.212,1.257h1.6Zm-8.843-1.809a2.463,2.463,0,0,1-.776-1.9,2.608,2.608,0,0,1,1.218-2.149,5.1,5.1,0,0,1,3.091-.892h3.424v2.656a4.192,4.192,0,0,1-1.757,2.162,5.5,5.5,0,0,1-3.065.841A3.021,3.021,0,0,1,902.2,183.405Zm32.8,1.809a9.048,9.048,0,0,1-.276-1.373,12.03,12.03,0,0,1-.083-1.424V175.59a4.138,4.138,0,0,0-1.385-3.349,5.5,5.5,0,0,0-3.668-1.168,5.57,5.57,0,0,0-3.7,1.187,3.285,3.285,0,0,0-1.34,2.753l0.025,0.077h1.424a2.378,2.378,0,0,1,.968-1.938,3.973,3.973,0,0,1,2.546-.77,3.847,3.847,0,0,1,2.661.847,2.979,2.979,0,0,1,.943,2.336v1.719H929.7a7.157,7.157,0,0,0-4.232,1.155,3.541,3.541,0,0,0-1.629,3.016,3.906,3.906,0,0,0,1.122,2.945,4.363,4.363,0,0,0,3.162,1.084,5.9,5.9,0,0,0,2.975-.738,5.628,5.628,0,0,0,2.014-1.867,7.946,7.946,0,0,0,.071,1.078q0.069,0.526.211,1.257h1.6Zm-8.843-1.809a2.467,2.467,0,0,1-.776-1.9,2.607,2.607,0,0,1,1.219-2.149,5.093,5.093,0,0,1,3.091-.892h3.424v2.656a4.2,4.2,0,0,1-1.757,2.162,5.5,5.5,0,0,1-3.065.841A3.022,3.022,0,0,1,926.149,183.405Zm23.781,1.809h1.911l0.039-.077-6.605-7.07,5.976-6.673-0.025-.064h-1.847l-5.477,6.159h-1.718V171.33h-1.552v13.884h1.552V178.85h1.757Zm6.628,0h10.2v4.5h1.526v-5.8h-1.154V171.33h-1.539v12.588H958.1V171.33h-1.539v13.884Zm17.593-2.553-0.077-.013V171.33h-1.539v13.884h1.539l7.413-11.356,0.077,0.026v11.33H983.1V171.33h-1.539Zm15.977,0-0.077-.013V171.33h-1.539v13.884h1.539l7.413-11.356,0.077,0.026v11.33h1.539V171.33h-1.539Zm21.482-4.171a7.461,7.461,0,0,0,1.68,5.037,6.061,6.061,0,0,0,8.92,0,7.506,7.506,0,0,0,1.67-5.037v-0.423a7.463,7.463,0,0,0-1.68-5.03,6.035,6.035,0,0,0-8.91,0,7.463,7.463,0,0,0-1.68,5.03v0.423Zm1.54-.423a6.617,6.617,0,0,1,1.21-4.029,4.277,4.277,0,0,1,6.76,0,6.563,6.563,0,0,1,1.23,4.029v0.423a6.567,6.567,0,0,1-1.22,4.055,4.308,4.308,0,0,1-6.77,0,6.626,6.626,0,0,1-1.21-4.055v-0.423Zm17.11,4.523a7.15,7.15,0,0,1-1.06-4.048V178a7.114,7.114,0,0,1,1.06-4.017,3.63,3.63,0,0,1,3.25-1.6,3.828,3.828,0,0,1,2.67,1,3.45,3.45,0,0,1,1.09,2.662h1.37l0.02-.077a4.384,4.384,0,0,0-1.43-3.541,5.329,5.329,0,0,0-3.72-1.348,5.181,5.181,0,0,0-4.31,1.951,7.77,7.77,0,0,0-1.54,4.979v0.539a7.736,7.736,0,0,0,1.55,4.991,5.178,5.178,0,0,0,4.31,1.951,5.51,5.51,0,0,0,3.63-1.3,3.866,3.866,0,0,0,1.51-3.221l-0.02-.077h-1.37a2.881,2.881,0,0,1-1.14,2.425,4.177,4.177,0,0,1-2.61.873A3.651,3.651,0,0,1,1030.26,182.59Zm22.91-11.26h-11.45v1.309h4.86v12.575h1.54V172.639h5.05V171.33Zm14.41,13.884a9.281,9.281,0,0,1-.27-1.373,11.06,11.06,0,0,1-.08-1.424V175.59a4.15,4.15,0,0,0-1.39-3.349,5.507,5.507,0,0,0-3.67-1.168,5.584,5.584,0,0,0-3.7,1.187,3.3,3.3,0,0,0-1.34,2.753l0.03,0.077h1.42a2.369,2.369,0,0,1,.97-1.938,3.977,3.977,0,0,1,2.55-.77,3.858,3.858,0,0,1,2.66.847,2.973,2.973,0,0,1,.94,2.336v1.719h-3.41a7.127,7.127,0,0,0-4.23,1.155,3.532,3.532,0,0,0-1.63,3.016,3.9,3.9,0,0,0,1.12,2.945,4.361,4.361,0,0,0,3.16,1.084,5.939,5.939,0,0,0,2.98-.738,5.657,5.657,0,0,0,2.01-1.867,7.637,7.637,0,0,0,.07,1.078q0.075,0.526.21,1.257h1.6Zm-8.84-1.809a2.452,2.452,0,0,1-.77-1.9,2.6,2.6,0,0,1,1.21-2.149,5.125,5.125,0,0,1,3.09-.892h3.43v2.656a4.184,4.184,0,0,1-1.76,2.162,5.475,5.475,0,0,1-3.06.841A3.032,3.032,0,0,1,1058.74,183.405Zm16.05-12.075v6.134a13.237,13.237,0,0,1-.64,4.947,2.116,2.116,0,0,1-2.04,1.417l-0.49.013-0.02,1.373h0.56a3.34,3.34,0,0,0,3.21-1.828,13.673,13.673,0,0,0,.95-5.922v-4.812h5.88v12.562h1.54V171.33h-8.95Zm13.5,7.16a7.461,7.461,0,0,0,1.68,5.037,6.061,6.061,0,0,0,8.92,0,7.455,7.455,0,0,0,1.67-5.037v-0.423a7.463,7.463,0,0,0-1.68-5.03,6.035,6.035,0,0,0-8.91,0,7.463,7.463,0,0,0-1.68,5.03v0.423Zm1.54-.423a6.622,6.622,0,0,1,1.22-4.029,4.277,4.277,0,0,1,6.76,0,6.563,6.563,0,0,1,1.23,4.029v0.423a6.572,6.572,0,0,1-1.23,4.055,4.3,4.3,0,0,1-6.76,0,6.631,6.631,0,0,1-1.22-4.055v-0.423Zm17.12,4.523a7.152,7.152,0,0,1-1.07-4.048V178a7.116,7.116,0,0,1,1.07-4.017,3.624,3.624,0,0,1,3.24-1.6,3.828,3.828,0,0,1,2.67,1,3.416,3.416,0,0,1,1.09,2.662h1.37l0.03-.077a4.423,4.423,0,0,0-1.44-3.541,5.329,5.329,0,0,0-3.72-1.348,5.194,5.194,0,0,0-4.31,1.951,7.829,7.829,0,0,0-1.54,4.979v0.539a7.794,7.794,0,0,0,1.55,4.991,5.2,5.2,0,0,0,4.32,1.951,5.548,5.548,0,0,0,3.63-1.3,3.893,3.893,0,0,0,1.51-3.221l-0.03-.077h-1.37a2.9,2.9,0,0,1-1.13,2.425,4.177,4.177,0,0,1-2.61.873A3.64,3.64,0,0,1,1106.95,182.59Zm14.22-11.26h-1.54v13.884h5.5a5.5,5.5,0,0,0,3.74-1.167,3.8,3.8,0,0,0,1.34-3.016,3.744,3.744,0,0,0-1.34-2.99,5.543,5.543,0,0,0-3.74-1.155h-3.96V171.33Zm3.96,6.865a3.74,3.74,0,0,1,2.66.841,2.8,2.8,0,0,1,.01,4.067,3.822,3.822,0,0,1-2.67.815h-3.96V178.2h3.96Zm12.22,4.915h-1.75v2.1h1.75v-2.1Zm0-11.241h-1.75v2.1h1.75v-2.1Z" transform="translate(-795.563 -171.063)"/>
</svg>
