<svg xmlns="http://www.w3.org/2000/svg" width="779.471" height="27.094" viewBox="0 0 779.471 27.094">
  <metadata><?xpacket begin="﻿" id="W5M0MpCehiHzreSzNTczkc9d"?>
<x:xmpmeta xmlns:x="adobe:ns:meta/" x:xmptk="Adobe XMP Core 5.6-c138 79.159824, 2016/09/14-01:09:01        ">
   <rdf:RDF xmlns:rdf="http://www.w3.org/1999/02/22-rdf-syntax-ns#">
      <rdf:Description rdf:about=""/>
   </rdf:RDF>
</x:xmpmeta>
                                                                                                    
                                                                                                    
                                                                                                    
                                                                                                    
                                                                                                    
                                                                                                    
                                                                                                    
                                                                                                    
                                                                                                    
                                                                                                    
                                                                                                    
                                                                                                    
                                                                                                    
                                                                                                    
                                                                                                    
                                                                                                    
                                                                                                    
                                                                                                    
                                                                                                    
                                                                                                    
                           
<?xpacket end="w"?></metadata>
<defs>
    <style>
      .cls-1 {
        fill: #fff600;
        fill-rule: evenodd;
      }
    </style>
  </defs>
  <path id="Секретная_акция_для_подписчиков_" data-name="Секретная акция для подписчиков    " class="cls-1" d="M580.468,17.2c0.034,8.157,6.2,12.27,12.3,12.236,5.1,0,10.483-2.673,11.373-9.459h-6.029a5.1,5.1,0,0,1-5.344,3.873c-3.631-.034-5.96-3.119-5.96-6.649,0-3.976,2.364-6.683,5.96-6.683a5.031,5.031,0,0,1,5.241,3.53h6.029c-0.924-6.409-6.3-9.117-11.27-9.117C586.668,4.927,580.5,9.04,580.468,17.2Zm45.666-12h-14.97V29.192h15.278V23.743h-9.18V19.527h8.152V14.078h-8.152V10.685h8.872V5.2ZM640.29,29.192V20.041a13.878,13.878,0,0,0,2.364-.137l5.275,9.288h6.817v-0.96l-6.509-10.556C653,14.626,652.862,10.1,652.862,5.2h-6.3c0,4.49.308,9.082-5.824,9.082H640.29V5.2h-6.234V29.192h6.234Zm25.921,0V23.057h4.419c11.475,0,11.475-17.822,0-17.856H660.079V29.192h6.132ZM670.6,17.539h-4.384V10.685c1.4,0,2.945-.034,4.384,0C674.158,10.719,673.952,17.539,670.6,17.539ZM701.106,5.2h-14.97V29.192h15.278V23.743h-9.18V19.527h8.153V14.078h-8.153V10.685h8.872V5.2Zm11.416,5.484V29.192h6.063V10.685h5.858V5.2H706.63v5.484h5.892Zm37.7-5.484h-6.269v8.705h-7.4V5.2h-6.269V29.192h6.269V19.562h7.4v9.631h6.269V5.2Zm22.93,23.991h6V28.3L768.322,4.893h-2.638L754.894,28.3v0.891h6l1.4-3.016h9.455Zm-3.391-8.26H764.28l2.706-6.306ZM783.2,28.3v0.891h6.851l4.111-7.06h3.186v7.06h6.132V5.2H792.965c-9.42.034-11.133,11.379-5.07,15.492Zm9.763-11.687c-3.323,0-3.494-5.9,0-5.929,1.439-.034,2.946,0,4.385,0v5.929h-4.385Zm45.559,12.578h5.994V28.3L833.694,4.893h-2.638L820.266,28.3v0.891h5.994l1.4-3.016h9.454Zm-3.392-8.26h-5.481l2.707-6.306Zm20.474,8.26V20.041a13.878,13.878,0,0,0,2.364-.137l5.275,9.288h6.817v-0.96l-6.509-10.556c4.762-3.05,4.625-7.574,4.625-12.476h-6.3c0,4.49.308,9.082-5.823,9.082h-0.446V5.2h-6.234V29.192h6.234Zm19.789,0h16.888V31.9h5.035V23.88h-2.432V5.2h-6.269V23.537h-6.953V5.2H875.4V29.192ZM917.371,17.4v11.79h6.338V5.1h-2.227L909.356,16.957V5.2h-6.269V29.227h2.192Zm12.576,10.9v0.891H936.8l4.11-7.06h3.186v7.06h6.132V5.2H939.709c-9.42.034-11.133,11.379-5.069,15.492Zm9.762-11.687c-3.322,0-3.494-5.9,0-5.929,1.439-.034,2.946,0,4.385,0v5.929h-4.385Zm32.405,12.647H986.3V31.9h5.036V23.88h-2.5l-8.5-18.987H977.7L969.476,23.88h-2.432V31.9h5.07V29.261ZM979,15.14l3.46,8.671h-6.783Zm27.761,0,6.17,14.052h5.99V28.3L1008.1,4.893h-2.64L994.667,28.3v0.891h5.993ZM1021.38,28.3v0.891h6.85l4.11-7.06h3.18v7.06h6.13V5.2h-10.51c-9.42.034-11.13,11.379-5.07,15.492Zm9.76-11.687c-3.32,0-3.5-5.9,0-5.929,1.44-.034,2.94,0,4.38,0v5.929h-4.38ZM1081.42,5.2h-19.93V29.192h6.27V10.856h7.4V29.192h6.26V5.2Zm30.81,12.03c0-16.588-24.59-16.588-24.59,0C1087.64,33.854,1112.23,33.854,1112.23,17.231Zm-18.29,0a6.027,6.027,0,1,1,12.02,0C1105.96,25.936,1093.94,25.936,1093.94,17.231Zm26.52,12.03h14.18V31.9h5.04V23.88h-2.51l-8.49-18.987h-2.64l-8.22,18.987h-2.43V31.9h5.07V29.261Zm6.88-14.121,3.46,8.671h-6.78ZM1164.4,5.2h-19.94V29.192h6.27V10.856h7.4V29.192h6.27V5.2Zm22,12.2v11.79h6.34V5.1h-2.23l-12.12,11.859V5.2h-6.27V29.227h2.19Zm13.5-.206c0.04,8.157,6.2,12.27,12.3,12.236,5.1,0,10.48-2.673,11.37-9.459h-6.03a5.1,5.1,0,0,1-5.34,3.873c-3.63-.034-5.96-3.119-5.96-6.649,0-3.976,2.36-6.683,5.96-6.683a5.025,5.025,0,0,1,5.24,3.53h6.03c-0.92-6.409-6.3-9.117-11.27-9.117C1206.1,4.927,1199.94,9.04,1199.9,17.2Zm48.48,12V5.2h-6.24V15h-1.2c-4.76,0-5.07-2.776-5.07-6.855V5.2h-6.3V8.148c0,8.431,3.02,12.681,11.34,12.681h1.23v8.363h6.24Zm22.6-11.79v11.79h6.33V5.1h-2.22l-12.13,11.859V5.2h-6.27V29.227h2.19Zm21.2,11.79V20.041a13.983,13.983,0,0,0,2.37-.137l5.27,9.288h6.82v-0.96l-6.51-10.556c4.76-3.05,4.62-7.574,4.62-12.476h-6.3c0,4.49.31,9.082-5.82,9.082h-0.45V5.2h-6.23V29.192h6.23Zm42.91-11.961c0-16.588-24.59-16.588-24.59,0C1310.5,33.854,1335.09,33.854,1335.09,17.231Zm-18.29,0a6.032,6.032,0,1,1,12.03,0C1328.83,25.936,1316.8,25.936,1316.8,17.231Zm42.14-4.661a7.356,7.356,0,0,0-7.47-7.369h-10.24V29.192h11.24c4.89,0,7.43-3.393,7.46-7.574a5.193,5.193,0,0,0-2.87-4.9A5.743,5.743,0,0,0,1358.94,12.57Zm-6.92,7.095c2.47,0,2.5,4.078.03,4.078h-4.89V19.664h4.86Zm-1.03-8.98c2.47,0,2.47,3.873.04,3.873h-3.87V10.685h3.83Z" transform="translate(-580.469 -4.813)"/>
</svg>
