<svg xmlns="http://www.w3.org/2000/svg" width="772.749" height="96.281" viewBox="0 0 772.749 96.281">
  <metadata><?xpacket begin="﻿" id="W5M0MpCehiHzreSzNTczkc9d"?>
<x:xmpmeta xmlns:x="adobe:ns:meta/" x:xmptk="Adobe XMP Core 5.6-c138 79.159824, 2016/09/14-01:09:01        ">
   <rdf:RDF xmlns:rdf="http://www.w3.org/1999/02/22-rdf-syntax-ns#">
      <rdf:Description rdf:about=""/>
   </rdf:RDF>
</x:xmpmeta>
                                                                                                    
                                                                                                    
                                                                                                    
                                                                                                    
                                                                                                    
                                                                                                    
                                                                                                    
                                                                                                    
                                                                                                    
                                                                                                    
                                                                                                    
                                                                                                    
                                                                                                    
                                                                                                    
                                                                                                    
                                                                                                    
                                                                                                    
                                                                                                    
                                                                                                    
                                                                                                    
                           
<?xpacket end="w"?></metadata>
<defs>
    <style>
      .cls-1 {
        fill: #fff;
        fill-rule: evenodd;
      }
    </style>
  </defs>
  <path id="Футболка_за_1_руб_При_покупке_Свитшота_или_Худи_" data-name="Футболка за 1 руб При покупке Свитшота или Худи   " class="cls-1" d="M626.243,71.515c0,6.838-5.194,8.615-10.183,8.889V62.694C621.322,62.9,626.243,64.677,626.243,71.515Zm-31.711,0c0-6.838,4.921-8.616,10.183-8.821V80.4C599.726,80.13,594.532,78.352,594.532,71.515ZM604.578,95.72H616.2V91.686c12.37-.41,22.553-5.265,22.553-20.171,0-14.838-10.114-19.624-22.484-20.035V47.446H604.51V51.48c-12.37.41-22.485,5.2-22.485,20.035,0,14.906,10.183,19.761,22.553,20.171V95.72Zm51.04-.205h13.19L691.5,49.5V47.651H678.24l-8.2,17.641H669.7l-9.021-17.641H647.007V49.5l16.129,29.266-7.518,15.453v1.3Zm55.913-36.924V95.515h12.1V58.591h11.686V47.651H699.776v10.94h11.755Zm55.814,16.616a4.7,4.7,0,1,1,0,9.368H758.6V75.207h8.748ZM758.6,64.4V58.591H780.74V47.651H746.364V95.515h21.049c22.895-.068,22.895-31.112,0-31.112H758.6Zm85.71,7.248c0-33.095-49.07-33.095-49.07,0C795.237,104.814,844.307,104.814,844.307,71.651Zm-36.5,0c0-17.231,23.988-17.231,23.988,0C831.8,89.019,807.812,89.019,807.812,71.651Zm68.239-4.171,12.3,28.035h11.96V93.737l-21.6-46.7h-5.262l-21.528,46.7v1.778h11.96Zm46.208,28.035V77.258a27.681,27.681,0,0,0,4.715-.273L937.5,95.515h13.6V93.6L938.114,72.54c9.5-6.086,9.226-15.111,9.226-24.889H934.765c0,8.958.615,18.12-11.618,18.12h-0.888V47.651H909.82V95.515h12.439Zm73.693,0h11.958V93.737l-21.594-46.7h-5.262l-21.528,46.7v1.778h11.96l2.8-6.017H993.15Zm-6.766-16.479H978.252l5.4-12.582Zm59.244-19.351c0-1.778,1.58-2.8,4.24-2.8a4.178,4.178,0,1,1-.14,8.342h-3.21v9.983h3.35c8.2,0,8.2,10.872,0,10.872-3.55,0-6.01-2.393-6.01-6.154h-10.73c0,10.735,6.35,16.479,16.74,16.479,12.3,0,18.45-6.564,18.45-15.043,0-5.4-2.05-9.231-6.9-11.829a11.371,11.371,0,0,0,4.17-8.889c0-6.974-5.26-13.881-15.72-13.881-8.34,0-15.51,4.1-15.1,12.923h10.86Zm67.18,35.83h11.95V93.737l-21.59-46.7h-5.26l-21.53,46.7v1.778h11.96l2.8-6.017h18.86Zm-6.77-16.479H1097.9l5.4-12.582Zm52.69-21.471V85.532h-7.11v9.983h26.24V85.532h-7.24V47.651h-18.39v9.915h6.5Zm65.61,37.95V83.276h8.82c22.89,0,22.89-35.556,0-35.625h-21.05V95.515h12.23Zm8.75-23.248h-8.75V58.591c2.81,0,5.88-.068,8.75,0C1243,58.66,1242.59,72.267,1235.89,72.267Zm33.77,23.248h13.19L1305.54,49.5V47.651h-13.26l-8.2,17.641h-0.34l-9.02-17.641h-13.67V49.5l16.13,29.266-7.52,15.453v1.3Zm67.87-20.308a4.7,4.7,0,1,1,0,9.368h-8.75V75.207h8.75Zm-8.75-10.8V58.591h22.14V47.651h-34.37V95.515h21.05c22.89-.068,22.89-31.112,0-31.112h-8.82ZM603.832,114.1H582.223v26h6.8V120.229h8.019V140.1h6.795v-26Zm15.06,26v-6.65h4.789c12.438,0,12.438-19.316,0-19.354H612.246v26h6.646Zm4.752-12.63h-4.752v-7.43c1.522,0,3.193-.037,4.752,0C627.505,120.08,627.283,127.473,623.644,127.473Zm32.193-.149V140.1h6.869V113.988h-2.414l-13.143,12.853V114.1h-6.795V140.14h2.377ZM706.179,114.1H684.57v26h6.794V120.229h8.02V140.1h6.795v-26Zm33.475,13.039c0-17.979-26.658-17.979-26.658,0C713,145.155,739.654,145.155,739.654,127.138Zm-19.827,0c0-9.361,13.032-9.361,13.032,0C732.859,136.574,719.827,136.574,719.827,127.138ZM753.434,140.1v-9.919a15.1,15.1,0,0,0,2.562-.148l5.718,10.067H769.1v-1.04l-7.054-11.442c5.161-3.306,5.012-8.209,5.012-13.522h-6.831c0,4.867.334,9.845-6.312,9.845h-0.483V114.1h-6.757v26h6.757Zm22.874,0h7.166l12.326-25v-1h-7.2l-4.455,9.585h-0.186l-4.9-9.585H771.63v1l8.762,15.9-4.084,8.395V140.1Zm46.133-26H800.832v26h6.795V120.229h8.019V140.1h6.8v-26Zm15.208,26v-9.919a15.1,15.1,0,0,0,2.562-.148l5.718,10.067h7.388v-1.04l-7.054-11.442c5.161-3.306,5.012-8.209,5.012-13.522h-6.831c0,4.867.334,9.845-6.312,9.845h-0.483V114.1h-6.757v26h6.757Zm37.5-26H858.926v26h16.559V134.2h-9.95v-4.569h8.837v-5.906h-8.837v-3.678h9.616V114.1Zm18.479,13c0.038,8.841,6.721,13.3,13.33,13.262,5.532,0,11.361-2.9,12.326-10.253h-6.534c-0.706,2.786-2.971,4.2-5.792,4.2-3.936-.037-6.461-3.381-6.461-7.207,0-4.309,2.562-7.244,6.461-7.244,2.784,0,4.752,1.189,5.68,3.827h6.535c-1-6.947-6.832-9.882-12.215-9.882C900.351,113.8,893.668,118.26,893.63,127.1Zm52.8-5.015a7.974,7.974,0,0,0-8.094-7.987h-11.1v26h12.178c5.31,0,8.057-3.678,8.094-8.21a5.63,5.63,0,0,0-3.118-5.312A6.212,6.212,0,0,0,946.433,122.086Zm-7.5,7.69c2.673,0,2.71,4.42.037,4.42h-5.309v-4.42h5.272Zm-1.114-9.733c2.673,0,2.673,4.2.037,4.2h-4.2v-4.2h4.158Zm33.01,7.281V140.1H977.7V113.988h-2.413l-13.143,12.853V114.1h-6.795V140.14h2.376Zm20.352-7.281V140.1h6.571v-20.06h6.348V114.1H984.8v5.944h6.386ZM1009.5,140.1h32.93v-26h-6.79v19.875h-6.27V114.1h-6.8v19.875h-6.27V114.1h-6.8v26Zm67.01-12.965c0-17.979-26.66-17.979-26.66,0C1049.85,145.155,1076.51,145.155,1076.51,127.138Zm-19.82,0c0-9.361,13.03-9.361,13.03,0C1069.72,136.574,1056.69,136.574,1056.69,127.138Zm30.63-7.095V140.1h6.57v-20.06h6.35V114.1h-19.3v5.944h6.38Zm34.81,20.06h6.5v-0.966l-11.74-25.372h-2.86l-11.69,25.372V140.1h6.5l1.52-3.269h10.25Zm-3.68-8.953h-5.94l2.94-6.835Zm42.92-3.826V140.1h6.86V113.988h-2.41l-13.14,12.853V114.1h-6.8V140.14h2.38Zm26.36-2.452,6.69,15.231h6.49v-0.966l-11.73-25.372h-2.86l-11.69,25.372V140.1h6.49Zm33.76,2.452V140.1h6.86V113.988h-2.41l-13.14,12.853V114.1H1206V140.14h2.38Zm37.97,4.606,4.76,8.173h7.16v-1l-8.43-12.779,7.5-11.219v-1h-6.87l-4.15,6.761h-0.19l-4.12-6.761h-6.91v1l7.5,11.219-8.39,12.779v1h7.17l4.75-8.173h0.22Zm20.39,8.173h7.16l12.33-25v-1h-7.2l-4.46,9.585h-0.18l-4.9-9.585h-7.43v1l8.76,15.9-4.08,8.395V140.1Zm24.76,0.074h15.37v2.861h5.46v-8.693h-2.71l-9.21-20.58h-2.86l-8.91,20.58h-2.63v8.693h5.49v-2.861Zm7.47-15.3,3.75,9.4h-7.36Zm33.86,2.452V140.1h6.87V113.988h-2.42l-13.14,12.853V114.1h-6.79V140.14h2.37Z" transform="translate(-582.031 -46.75)"/>
</svg>
